<svg width="24" height="24" viewBox="0 0 24 24" fill="none" xmlns="http://www.w3.org/2000/svg">
<path d="M19.1155 5.07307C17.2659 3.10917 14.762 2.00656 12.1517 2.00656C9.54143 2.00656 7.03748 3.10917 5.18784 5.07307L3.76449 6.59079V2.94074C3.76449 2.69124 3.67153 2.45197 3.50608 2.27554C3.34063 2.09912 3.11623 2 2.88224 2C2.64826 2 2.42385 2.09912 2.2584 2.27554C2.09295 2.45197 2 2.69124 2 2.94074V8.88619C1.99998 9.13687 2.09255 9.37746 2.25767 9.55587C2.42279 9.73428 2.64718 9.83619 2.88224 9.83947H8.46979C8.70377 9.83947 8.92818 9.74037 9.09363 9.56394C9.25908 9.38752 9.35203 9.14824 9.35203 8.89874C9.35203 8.64924 9.25908 8.40997 9.09363 8.23353C8.92818 8.05711 8.70377 7.958 8.46979 7.958H4.94081L6.43475 6.40265C7.95203 4.78803 10.0081 3.88121 12.1517 3.88121C14.2953 3.88121 16.3513 4.78803 17.8686 6.40265C25.1501 14.794 14.3397 26.3588 6.43475 18.5946C6.26932 18.4185 6.04509 18.3195 5.81129 18.3195C5.5775 18.3195 5.35327 18.4185 5.18784 18.5946C5.1046 18.6811 5.03846 18.7845 4.99329 18.8986C4.94812 19.0128 4.92485 19.1355 4.92485 19.2594C4.92485 19.3833 4.94812 19.506 4.99329 19.6201C5.03846 19.7343 5.1046 19.8377 5.18784 19.9242C7.03477 21.8936 9.53974 23 12.1517 23C14.7636 23 17.2686 21.8936 19.1155 19.9242C20.9625 17.9548 22 15.2837 22 12.4986C22 9.7135 20.9625 7.04246 19.1155 5.07307Z" fill="#A0A0A5"/>
<path d="M12.08 7.25C11.8159 7.25363 11.5635 7.36542 11.3767 7.56154C11.1899 7.75768 11.0835 8.02265 11.08 8.3V13.2C11.0803 13.4783 11.1858 13.7453 11.3734 13.942L14.7467 17.4C14.839 17.4981 14.9491 17.576 15.0704 17.6289C15.1917 17.6817 15.322 17.7087 15.4533 17.708C15.6289 17.6811 15.7946 17.6057 15.9332 17.4895C16.0719 17.3733 16.1786 17.2202 16.2424 17.0464C16.3062 16.8726 16.3248 16.684 16.2963 16.5001C16.2678 16.3163 16.1931 16.1436 16.08 16L13.04 12.808V8.3C13.037 8.02967 12.936 7.7707 12.7578 7.57568C12.5795 7.38065 12.3371 7.26421 12.08 7.25Z" fill="#A0A0A5"/>
</svg>
