<svg width="24" height="24" viewBox="0 0 24 24" fill="none" xmlns="http://www.w3.org/2000/svg">
<path d="M5.85965 7.76834C5.77787 7.13159 5.2834 6.69534 4.75524 6.79393C4.22707 6.89254 3.8652 7.48864 3.94698 8.12538L5.85965 7.76834ZM6.38717 19.5H7.3549C7.3549 19.4403 7.35109 19.3805 7.3435 19.3214L6.38717 19.5ZM9.41938 23C9.95383 23 10.3871 22.4776 10.3871 21.8333C10.3871 21.189 9.95383 20.6667 9.41938 20.6667V23ZM4.39446 6.95451C3.93985 7.29331 3.79914 8.01227 4.08018 8.56032C4.36121 9.10839 4.95756 9.27803 5.41217 8.93923L4.39446 6.95451ZM10.9187 3.46375L10.4994 2.41229C10.4687 2.43008 10.4389 2.44981 10.4098 2.4714L10.9187 3.46375ZM13.0813 3.46375L13.5902 2.4714C13.5611 2.44981 13.5313 2.43008 13.5006 2.41229L13.0813 3.46375ZM18.5878 8.93923C19.0425 9.27803 19.6387 9.10839 19.9197 8.56032C20.2008 8.01227 20.0601 7.29331 19.6056 6.95451L18.5878 8.93923ZM5.41217 8.93923C5.86683 8.60049 6.0075 7.88165 5.72653 7.33354C5.44556 6.78542 4.8491 6.61579 4.39446 6.95451L5.41217 8.93923ZM2.45912 8.39642C2.00447 8.73515 1.86368 9.45407 2.14465 10.0022C2.42562 10.5503 3.02196 10.72 3.4766 10.3813L2.45912 8.39642ZM20.053 8.12538C20.1347 7.48864 19.7729 6.89254 19.2448 6.79393C18.7165 6.69534 18.2221 7.13159 18.1403 7.76834L20.053 8.12538ZM17.6128 19.5L16.6564 19.3214C16.649 19.3805 16.6451 19.4403 16.6451 19.5H17.6128ZM14.5806 20.6667C14.0462 20.6667 13.6129 21.189 13.6129 21.8333C13.6129 22.4776 14.0462 23 14.5806 23V20.6667ZM19.6056 6.95451C19.1509 6.61579 18.5545 6.78542 18.2735 7.33354C17.9924 7.88165 18.1332 8.60049 18.5878 8.93923L19.6056 6.95451ZM20.5234 10.3813C20.9781 10.72 21.5743 10.5503 21.8553 10.0022C22.1364 9.45407 21.9955 8.73515 21.5409 8.39642L20.5234 10.3813ZM8.45165 21.8333C8.45165 22.4776 8.88494 23 9.41938 23C9.95383 23 10.3871 22.4776 10.3871 21.8333H8.45165ZM13.6129 21.8333C13.6129 22.4776 14.0462 23 14.5806 23C15.115 23 15.5483 22.4776 15.5483 21.8333H13.6129ZM9.41938 20.6667C8.88494 20.6667 8.45165 21.189 8.45165 21.8333C8.45165 22.4776 8.88494 23 9.41938 23V20.6667ZM14.5806 23C15.115 23 15.5483 22.4776 15.5483 21.8333C15.5483 21.189 15.115 20.6667 14.5806 20.6667V23ZM3.94698 8.12538L5.43083 19.6784L7.3435 19.3214L5.85965 7.76834L3.94698 8.12538ZM5.41944 19.5C5.41944 20.8596 5.83813 21.8767 6.64543 22.4545C7.34202 22.953 8.17888 23 8.77423 23V20.6667C8.19282 20.6667 7.83615 20.5931 7.63339 20.448C7.55657 20.393 7.5028 20.3277 7.45963 20.224C7.41157 20.1085 7.3549 19.8906 7.3549 19.5H5.41944ZM8.77423 23H9.41938V20.6667H8.77423V23ZM5.41217 8.93923L11.4276 4.45612L10.4098 2.4714L4.39446 6.95451L5.41217 8.93923ZM11.3381 4.51521C11.7564 4.27272 12.2436 4.27272 12.6619 4.51521L13.5006 2.41229C12.5521 1.86257 11.4479 1.86257 10.4994 2.41229L11.3381 4.51521ZM12.5724 4.45612L18.5878 8.93923L19.6056 6.95451L13.5902 2.4714L12.5724 4.45612ZM4.39446 6.95451L2.45912 8.39642L3.4766 10.3813L5.41217 8.93923L4.39446 6.95451ZM18.1403 7.76834L16.6564 19.3214L18.5692 19.6784L20.053 8.12538L18.1403 7.76834ZM16.6451 19.5C16.6451 19.8906 16.5884 20.1085 16.5403 20.224C16.4972 20.3277 16.4434 20.393 16.3666 20.448C16.1638 20.5931 15.8072 20.6667 15.2258 20.6667V23C15.8211 23 16.658 22.953 17.3545 22.4545C18.1618 21.8767 18.5805 20.8596 18.5805 19.5H16.6451ZM15.2258 20.6667H14.5806V23H15.2258V20.6667ZM18.5878 8.93923L20.5234 10.3813L21.5409 8.39642L19.6056 6.95451L18.5878 8.93923ZM10.3871 21.8333V17.1667H8.45165V21.8333H10.3871ZM10.3871 17.1667C10.3871 16.9518 10.5315 16.7778 10.7097 16.7778V14.4444C9.46261 14.4444 8.45165 15.6632 8.45165 17.1667H10.3871ZM10.7097 16.7778H13.2903V14.4444H10.7097V16.7778ZM13.2903 16.7778C13.4685 16.7778 13.6129 16.9518 13.6129 17.1667H15.5483C15.5483 15.6632 14.5374 14.4444 13.2903 14.4444V16.7778ZM13.6129 17.1667V21.8333H15.5483V17.1667H13.6129ZM9.41938 23H14.5806V20.6667H9.41938V23Z" fill="#A0A0A5"/>
</svg>
