<svg width="24" height="24" viewBox="0 0 24 24" fill="none" xmlns="http://www.w3.org/2000/svg">
<path d="M19.5617 7.25C19.7904 5.87999 18.7863 4.625 17.4617 4.625H6.53788C5.21323 4.625 4.20922 5.87999 4.43784 7.25" stroke="#E93B6F" stroke-width="2"/>
<path d="M17.4999 4.625C17.5283 4.35297 17.5425 4.21692 17.5427 4.10457C17.545 3.02976 16.7739 2.12667 15.7561 2.01199C15.6497 2 15.5194 2 15.2588 2H8.74099C8.48035 2 8.35002 2 8.24362 2.01199C7.22584 2.12667 6.45481 3.02976 6.45704 4.10456C6.45727 4.21692 6.47146 4.35295 6.49983 4.625" stroke="#E93B6F" stroke-width="2"/>
<path d="M14.5812 14.1969C15.1396 14.5604 15.1396 15.5013 14.5812 15.8648L11.2096 18.0594C10.6669 18.4126 10 17.9529 10 17.2255V12.8362C10 12.1088 10.6669 11.649 11.2096 12.0023L14.5812 14.1969Z" stroke="#E93B6F" stroke-width="2"/>
<path d="M2.38351 14.3827C1.93748 11.0609 1.71447 9.40003 2.66232 8.32502C3.61017 7.25 5.29758 7.25 8.6724 7.25H15.3276C18.7024 7.25 20.3898 7.25 21.3377 8.32502C22.2855 9.40003 22.0625 11.0609 21.6165 14.3827L21.1935 17.5327C20.8437 20.1376 20.6689 21.44 19.7717 22.2201C18.8745 23 17.5512 23 14.9046 23H9.09537C6.44881 23 5.12553 23 4.22834 22.2201C3.33115 21.44 3.15626 20.1376 2.80648 17.5327L2.38351 14.3827Z" stroke="#E93B6F" stroke-width="2"/>
</svg>
