<svg width="24" height="24" viewBox="0 0 24 24" fill="none" xmlns="http://www.w3.org/2000/svg">
<path fill-rule="evenodd" clip-rule="evenodd" d="M2.79123 23.9993L2.83375 24.0001L2.8696 23.9966C3.02885 23.9756 3.6675 23.8471 3.6675 23.1256C3.6675 18.7781 7.02668 15.2545 11.1713 15.2545C11.7224 15.2545 12.2776 15.2545 12.8287 15.2545C16.9725 15.2545 20.3325 18.7781 20.3325 23.1256C20.3325 23.1439 20.3325 23.1614 20.3342 23.1789C20.3467 23.4631 20.4617 23.6486 20.6035 23.7701C20.7519 23.9135 20.9495 24.0001 21.1663 24.0001C21.1663 24.0001 22 23.9503 22 23.1256C22 17.8126 17.8938 13.5054 12.8287 13.5054C12.2776 13.5054 11.7224 13.5054 11.1713 13.5054C6.10622 13.5054 2 17.8126 2 23.1256C2 23.0818 2.0025 23.0451 2.00667 23.0145C2.0025 23.0504 2 23.088 2 23.1256C2 23.5935 2.35017 23.9756 2.79123 23.9993Z" fill="#A0A0A5"/>
<path fill-rule="evenodd" clip-rule="evenodd" d="M11.9908 3C9.68718 3 7.81708 4.96164 7.81708 7.37806C7.81708 9.79448 9.68718 11.7561 11.9908 11.7561C14.2945 11.7561 16.1646 9.79448 16.1646 7.37806C16.1646 4.96164 14.2945 3 11.9908 3ZM11.9908 4.74913C13.374 4.74913 14.4971 5.92716 14.4971 7.37806C14.4971 8.82896 13.374 10.007 11.9908 10.007C10.6076 10.007 9.48458 8.82896 9.48458 7.37806C9.48458 5.92716 10.6076 4.74913 11.9908 4.74913Z" fill="#A0A0A5"/>
</svg>
